<svg width="25" height="24" viewBox="0 0 25 24" fill="none" xmlns="http://www.w3.org/2000/svg">
<path fill-rule="evenodd" clip-rule="evenodd" d="M13.3613 6.09197C13.3613 5.75209 13.6369 5.47656 13.9767 5.47656H19.1461C19.486 5.47656 19.7615 5.75209 19.7615 6.09197C19.7615 6.43184 19.486 6.70737 19.1461 6.70737H13.9767C13.6369 6.70737 13.3613 6.43184 13.3613 6.09197Z" fill="black"/>
<path fill-rule="evenodd" clip-rule="evenodd" d="M5.23828 6.09197C5.23828 5.75209 5.51381 5.47656 5.85369 5.47656H11.0231C11.363 5.47656 11.6385 5.75209 11.6385 6.09197C11.6385 6.43184 11.363 6.70737 11.0231 6.70737H5.85369C5.51381 6.70737 5.23828 6.43184 5.23828 6.09197Z" fill="black"/>
<path fill-rule="evenodd" clip-rule="evenodd" d="M11.8848 12.0002C11.8848 11.6603 12.1603 11.3848 12.5002 11.3848H19.1465C19.4864 11.3848 19.7619 11.6603 19.7619 12.0002C19.7619 12.34 19.4864 12.6156 19.1465 12.6156H12.5002C12.1603 12.6156 11.8848 12.34 11.8848 12.0002Z" fill="black"/>
<path fill-rule="evenodd" clip-rule="evenodd" d="M5.23828 12.0002C5.23828 11.6603 5.51381 11.3848 5.85369 11.3848H9.54611C9.88599 11.3848 10.1615 11.6603 10.1615 12.0002C10.1615 12.34 9.88599 12.6156 9.54611 12.6156H5.85369C5.51381 12.6156 5.23828 12.34 5.23828 12.0002Z" fill="black"/>
<path fill-rule="evenodd" clip-rule="evenodd" d="M14.8389 17.9084C14.8389 17.5685 15.1144 17.293 15.4543 17.293H19.1467C19.4866 17.293 19.7621 17.5685 19.7621 17.9084C19.7621 18.2482 19.4866 18.5238 19.1467 18.5238H15.4543C15.1144 18.5238 14.8389 18.2482 14.8389 17.9084Z" fill="black"/>
<path fill-rule="evenodd" clip-rule="evenodd" d="M5.23828 17.9084C5.23828 17.5685 5.51381 17.293 5.85369 17.293H12.5001C12.8399 17.293 13.1155 17.5685 13.1155 17.9084C13.1155 18.2482 12.8399 18.5238 12.5001 18.5238H5.85369C5.51381 18.5238 5.23828 18.2482 5.23828 17.9084Z" fill="black"/>
<path fill-rule="evenodd" clip-rule="evenodd" d="M13.9767 4C14.3166 4 14.5921 4.27553 14.5921 4.6154V7.56934C14.5921 7.90921 14.3166 8.18474 13.9767 8.18474C13.6369 8.18474 13.3613 7.90921 13.3613 7.56934V4.6154C13.3613 4.27553 13.6369 4 13.9767 4Z" fill="black"/>
<path fill-rule="evenodd" clip-rule="evenodd" d="M9.54607 9.9082C9.88595 9.9082 10.1615 10.1837 10.1615 10.5236V13.4775C10.1615 13.8174 9.88595 14.0929 9.54607 14.0929C9.20619 14.0929 8.93066 13.8174 8.93066 13.4775V10.5236C8.93066 10.1837 9.20619 9.9082 9.54607 9.9082Z" fill="black"/>
<path fill-rule="evenodd" clip-rule="evenodd" d="M15.4543 15.8164C15.7942 15.8164 16.0697 16.0919 16.0697 16.4318V19.3857C16.0697 19.7256 15.7942 20.0011 15.4543 20.0011C15.1144 20.0011 14.8389 19.7256 14.8389 19.3857V16.4318C14.8389 16.0919 15.1144 15.8164 15.4543 15.8164Z" fill="black"/>
</svg>
