<svg width="151" height="48" viewBox="0 0 151 48" fill="none" xmlns="http://www.w3.org/2000/svg">
<g clip-path="url(#clip0_492_6071)">
<path d="M24.372 4.16309V9.47176H24.2646C23.42 9.47176 22.605 9.53505 21.8567 9.65045C12.3916 10.905 5.28265 19.0653 5.28265 28.644C5.28265 32.0094 6.17173 35.3227 7.83877 38.2078C8.64265 39.6076 9.60212 40.8845 10.7135 42.02H3.97125C3.72675 41.6477 3.48595 41.268 3.26368 40.8733C1.12988 37.1692 0 32.9438 0 28.644C0 16.4147 9.08349 5.98724 21.1269 4.39762C22.0975 4.24871 23.1644 4.17425 24.2646 4.16309H24.372Z" fill="#125C56"/>
<path d="M54.4157 16.4036C54.3601 18.4101 54.3305 20.9007 54.3305 23.8714C54.3305 26.8422 54.3601 29.3067 54.4157 31.3393H52.2078C52.2634 29.4742 52.293 27.1996 52.293 24.5118H44.6469C44.6469 27.1996 44.6765 29.4779 44.7321 31.3393H42.5242C42.5946 28.8078 42.6316 26.3173 42.6316 23.8714C42.6316 21.4256 42.5946 18.9202 42.5242 16.4036H44.7321C44.6765 18.9648 44.6469 21.0347 44.6469 22.6131V24.0204H52.293V22.6131C52.293 21.0347 52.2634 18.9648 52.2078 16.4036H54.4157Z" fill="#125C56"/>
<path d="M63.9326 31.641C62.3026 31.641 60.8912 31.2501 59.6946 30.4683C58.4981 29.6865 57.5905 28.6702 56.9755 27.4156C56.3606 26.1648 56.0531 24.8469 56.0531 23.4657C56.0531 22.2149 56.3124 21.0459 56.8273 19.9663C57.346 18.8867 58.1313 17.9896 59.1834 17.2785C60.2392 16.5675 61.521 16.1617 63.0361 16.0612C63.1769 16.0463 63.3881 16.0388 63.6733 16.0388C65.2996 16.0388 66.7073 16.426 67.889 17.2003C69.0708 17.9747 69.9673 18.9873 70.5748 20.2307C71.1824 21.4741 71.4898 22.7882 71.4898 24.1694C71.4898 25.3495 71.2602 26.4663 70.8008 27.5198C70.3414 28.5734 69.645 29.4594 68.7189 30.1779C67.7927 30.8964 66.6629 31.3469 65.3329 31.533C64.7958 31.6037 64.329 31.641 63.9326 31.641ZM67.5631 30.1146C68.2002 29.4966 68.6744 28.7186 68.9856 27.7879C69.2968 26.8572 69.4524 25.8483 69.4524 24.7687C69.4524 23.3466 69.1967 21.9729 68.6892 20.6513C68.178 19.3297 67.4408 18.265 66.4702 17.4609C65.4996 16.6568 64.3698 16.2994 63.0843 16.3813C61.9803 16.452 61.0542 16.7908 60.3022 17.3939C59.5502 17.997 58.9945 18.7825 58.6352 19.743C58.2758 20.7035 58.0943 21.7533 58.0943 22.8924C58.0943 24.2736 58.3536 25.6101 58.8685 26.9056C59.3835 28.2011 60.1244 29.2584 61.0875 30.0737C62.0507 30.8927 63.1695 31.3022 64.4438 31.3022C64.6846 31.3022 64.9477 31.2798 65.2292 31.2389C66.1479 31.1123 66.9296 30.7363 67.5668 30.1183L67.5631 30.1146Z" fill="#125C56"/>
<path d="M83.4999 26.7938C83.9741 27.3336 84.4742 28.0521 84.9965 28.9493C85.4077 29.6604 85.767 30.2002 86.0782 30.5724C86.3894 30.941 86.771 31.1979 87.2266 31.3393C86.7043 31.5404 86.1708 31.6371 85.6337 31.6371C84.7965 31.6371 84.1667 31.3542 83.7444 30.7846C83.5888 30.6283 83.4517 30.431 83.3295 30.1964C83.2072 29.9619 83.0368 29.5971 82.8108 29.0982C82.5293 28.4579 82.2774 27.933 82.0551 27.5198C81.8365 27.1065 81.5476 26.738 81.1957 26.4104C80.84 26.0828 80.4251 25.8855 79.9435 25.811H75.7389C75.7389 27.2182 75.7685 29.061 75.8241 31.3393H73.6162C73.6866 28.8078 73.7236 26.3173 73.7236 23.8714C73.7236 21.4256 73.6866 18.9202 73.6162 16.4036H79.3286C80.5326 16.4036 81.5661 16.6344 82.4293 17.096C83.2924 17.5576 83.9444 18.1644 84.3815 18.909C84.8187 19.6573 85.041 20.4502 85.041 21.2878C85.041 22.2707 84.7446 23.1604 84.1482 23.9571C83.5554 24.7537 82.7034 25.301 81.5995 25.5988C82.3922 25.8557 83.0257 26.254 83.4999 26.7938ZM75.8019 16.8912C75.7611 18.8271 75.7389 20.923 75.7389 23.1865V25.3643H79.2841C79.4101 25.3494 79.5879 25.3419 79.8139 25.3419C80.4918 25.2712 81.0771 25.0367 81.5661 24.6383C82.0551 24.24 82.4219 23.7411 82.6701 23.1455C82.9183 22.5499 83.0405 21.9133 83.0405 21.2469C83.0405 20.4912 82.8812 19.7801 82.5626 19.1137C82.244 18.4436 81.7699 17.9038 81.1401 17.4906C80.5103 17.0774 79.7509 16.8726 78.8581 16.8726L75.8019 16.895V16.8912Z" fill="#125C56"/>
<path d="M97.5067 19.1549C97.2104 18.4736 96.7066 17.8928 95.999 17.4163C95.2914 16.9398 94.3986 16.7016 93.3243 16.7016C92.5871 16.7016 91.9166 16.8281 91.3054 17.085C90.6978 17.3419 90.2162 17.6918 89.8606 18.1423C89.505 18.589 89.3309 19.0841 89.3309 19.6239C89.3309 20.0223 89.4235 20.4132 89.6087 20.7966C89.8791 21.3215 90.32 21.7534 90.9349 22.0884C91.5499 22.4235 92.4167 22.8032 93.5355 23.2313C94.4135 23.5589 95.1284 23.853 95.6804 24.1173C96.2324 24.3816 96.7399 24.713 97.1993 25.1113C97.6586 25.5096 97.9809 25.9787 98.1661 26.5185C98.2662 26.8052 98.3143 27.129 98.3143 27.5013C98.3143 28.1565 98.118 28.7894 97.729 29.3999C97.34 30.0105 96.751 30.513 95.9656 30.9039C95.1803 31.2948 94.2208 31.4921 93.0872 31.4921C91.3017 31.4921 89.931 31.1161 88.9678 30.3604C88.0046 29.6047 87.423 28.6814 87.2267 27.5869L87.6082 27.5646C87.9046 28.5176 88.4825 29.3255 89.3383 29.9881C90.194 30.6508 91.3239 30.9821 92.7242 30.9821C93.4318 30.9821 94.043 30.8555 94.5616 30.5987C95.0766 30.3418 95.4729 30.0105 95.7397 29.5972C96.0064 29.184 96.1435 28.7447 96.1435 28.2757C96.1435 27.7768 95.9879 27.3226 95.6767 26.9094C95.2951 26.4106 94.8024 25.9973 94.2023 25.6697C93.6022 25.3421 92.7835 24.981 91.7499 24.5827C90.7571 24.1843 89.9791 23.8344 89.4124 23.5366C88.8456 23.2387 88.364 22.8441 87.9676 22.3527C87.5712 21.8613 87.3712 21.2471 87.3712 20.5062C87.3712 19.7245 87.612 19.0134 88.0935 18.3731C88.5751 17.7328 89.2494 17.2265 90.1199 16.8579C90.9905 16.4894 91.9796 16.3032 93.0835 16.3032C93.3799 16.3032 93.5985 16.3107 93.7429 16.3256C94.8876 16.3963 95.8138 16.7053 96.5139 17.2525C97.2141 17.7998 97.6845 18.4364 97.9253 19.1623H97.4993L97.5067 19.1549Z" fill="#125C56"/>
<path d="M113.392 27.7135C113.01 28.7522 112.321 29.6345 111.332 30.3604C110.339 31.0863 109.065 31.4475 107.509 31.4475C105.823 31.4475 104.382 31.0901 103.186 30.3679C101.989 29.6494 101.089 28.7112 100.489 27.5497C99.8887 26.3919 99.585 25.156 99.585 23.8456C99.585 22.5351 99.885 21.3029 100.489 20.1414C101.089 18.9836 101.982 18.0418 103.164 17.3233C104.345 16.6048 105.764 16.2437 107.42 16.2437C109.076 16.2437 110.38 16.6048 111.369 17.3307C112.358 18.0566 113.018 18.9389 113.344 19.9776L111.877 19.9999C111.606 19.0469 111.11 18.2391 110.38 17.5764C109.65 16.9138 108.705 16.5824 107.546 16.5824C106.272 16.5824 105.194 16.8914 104.308 17.5094C103.423 18.1274 102.76 18.9464 102.311 19.9627C101.867 20.979 101.641 22.081 101.641 23.2611C101.641 24.4412 101.867 25.6027 102.319 26.6972C102.771 27.7917 103.441 28.7038 104.327 29.4297C105.212 30.1557 106.264 30.5763 107.479 30.688C107.665 30.7178 107.931 30.729 108.287 30.729C109.461 30.729 110.454 30.4349 111.262 29.8429C112.069 29.2547 112.651 28.5288 113.003 27.6763L113.384 27.6986L113.392 27.7135Z" fill="#125C56"/>
<path d="M123.798 31.3393C123.401 30.1741 122.879 28.7148 122.227 26.9651C122.171 26.7678 122.094 26.537 121.994 26.2838H116.6L114.796 31.343H114.266L119.575 16.4036H120.571C122.764 22.535 124.635 27.516 126.176 31.343H123.798V31.3393ZM116.767 25.7924H121.801C121.064 23.7858 120.201 21.4889 119.212 18.8978L116.77 25.7924H116.767Z" fill="#125C56"/>
<path d="M136.463 17.0962C137.334 17.5578 137.997 18.1646 138.449 18.9092C138.901 19.6575 139.127 20.4504 139.127 21.288C139.127 22.1256 138.912 22.833 138.479 23.5291C138.045 24.2253 137.397 24.7912 136.534 25.2267C135.671 25.6623 134.615 25.8782 133.37 25.8782H129.992C129.992 27.2742 130.021 29.0947 130.077 31.3432H127.869C127.939 28.8117 127.976 26.3212 127.976 23.8754C127.976 21.4295 127.939 18.9241 127.869 16.4075H133.348C134.552 16.4075 135.589 16.6383 136.46 17.0999L136.463 17.0962ZM132.907 25.4277C133.815 25.4277 134.585 25.2304 135.222 24.8395C135.86 24.4487 136.337 23.9349 136.656 23.302C136.975 22.6692 137.134 21.9879 137.134 21.262C137.134 20.536 136.967 19.7915 136.634 19.1176C136.3 18.4438 135.815 17.8966 135.178 17.4834C134.541 17.0701 133.778 16.8654 132.885 16.8654L130.062 16.8877C130.021 18.8236 129.999 20.9344 129.999 23.2276V25.424H132.907V25.4277Z" fill="#125C56"/>
<path d="M151 30.8518V31.3432H141.02C141.09 28.8117 141.127 26.3212 141.127 23.8754C141.127 21.4295 141.09 18.9241 141.02 16.4075H150.47V16.8765H143.206C143.165 18.8124 143.143 20.9046 143.143 23.1494V24.6236H148.388V25.115H143.143C143.143 27.1775 143.165 29.1058 143.206 30.9002L151 30.8593V30.8518Z" fill="#125C56"/>
<path d="M32.6998 0.5L31.018 5.07529V37.1358L25.739 33.7816V9.47188H25.8427V4.16321H25.739V4.1297L32.6998 0.5Z" fill="#125C56"/>
<path d="M27.0023 4.16309H24.2646V9.47176H27.0023V4.16309Z" fill="#125C56"/>
<path d="M26.3317 47.4999H21.0491C21.1565 45.1434 19.8043 43.6469 17.4557 41.268C14.518 38.2861 10.8653 34.5782 11.4543 27.5422C11.9619 21.4815 16.2517 16.8504 20.423 15.1863V21.2693C18.6893 22.6281 16.9778 24.9102 16.7148 28.0001C16.3221 32.5865 18.5856 34.8797 21.2047 37.5341C23.6645 40.0283 26.4428 42.8539 26.328 47.5037L26.3317 47.4999Z" fill="#125C56"/>
</g>
<defs>
<clipPath id="clip0_492_6071">
<rect width="151" height="47" fill="white" transform="translate(0 0.5)"/>
</clipPath>
</defs>
</svg>
