<svg width="48" height="48" viewBox="0 0 48 48" fill="none" xmlns="http://www.w3.org/2000/svg">
<rect width="48" height="48" rx="24" fill="#D9D9D9"/>
<path fill-rule="evenodd" clip-rule="evenodd" d="M24 13.9592C21.1597 13.9592 18.8571 16.2617 18.8571 19.102C18.8571 21.9424 21.1597 24.2449 24 24.2449C26.8403 24.2449 29.1428 21.9424 29.1428 19.102C29.1428 16.2617 26.8403 13.9592 24 13.9592ZM16.8979 19.102C16.8979 15.1797 20.0776 12 24 12C27.9223 12 31.102 15.1797 31.102 19.102C31.102 23.0244 27.9223 26.2041 24 26.2041C20.0776 26.2041 16.8979 23.0244 16.8979 19.102Z" fill="#1D1D1B"/>
<path fill-rule="evenodd" clip-rule="evenodd" d="M16.3807 27.4009C18.4015 25.3801 21.1423 24.2449 24.0001 24.2449C26.858 24.2449 29.5988 25.3801 31.6196 27.4009C33.6404 29.4217 34.7756 32.1625 34.7756 35.0204C34.7756 35.5614 34.337 36 33.796 36C33.255 36 32.8164 35.5614 32.8164 35.0204C32.8164 32.6821 31.8876 30.4397 30.2342 28.7863C28.5808 27.1329 26.3384 26.2041 24.0001 26.2041C21.6619 26.2041 19.4194 27.1329 17.766 28.7863C16.1127 30.4397 15.1838 32.6821 15.1838 35.0204C15.1838 35.5614 14.7452 36 14.2042 36C13.6632 36 13.2246 35.5614 13.2246 35.0204C13.2246 32.1625 14.3599 29.4217 16.3807 27.4009Z" fill="#1D1D1B"/>
</svg>
