<svg width="25" height="24" viewBox="0 0 25 24" fill="none" xmlns="http://www.w3.org/2000/svg">
<path fill-rule="evenodd" clip-rule="evenodd" d="M2.89991 10.8006C2.89991 6.16156 6.66058 2.40089 11.2996 2.40089C15.9386 2.40089 19.6993 6.16156 19.6993 10.8006C19.6993 15.4396 15.9386 19.2003 11.2996 19.2003C6.66058 19.2003 2.89991 15.4396 2.89991 10.8006ZM11.2996 0.000976562C5.33515 0.000976562 0.5 4.83613 0.5 10.8006C0.5 16.765 5.33515 21.6002 11.2996 21.6002C13.85 21.6002 16.194 20.7161 18.0417 19.2377L22.4517 23.6477C22.9203 24.1163 23.6801 24.1163 24.1487 23.6477C24.6173 23.1791 24.6173 22.4193 24.1487 21.9507L19.7385 17.5405C21.2158 15.6931 22.0992 13.35 22.0992 10.8006C22.0992 4.83613 17.2641 0.000976562 11.2996 0.000976562Z" fill="#F7F6F5"/>
</svg>
