<svg width="16" height="15" viewBox="0 0 16 15" fill="none" xmlns="http://www.w3.org/2000/svg">
<path d="M7.70376 2.17161C7.73115 2.11628 7.77346 2.0697 7.82592 2.03713C7.87838 2.00456 7.93889 1.9873 8.00064 1.9873C8.06238 1.9873 8.1229 2.00456 8.17535 2.03713C8.22781 2.0697 8.27012 2.11628 8.29751 2.17161L9.74126 5.09599C9.83637 5.28847 9.97677 5.45499 10.1504 5.58127C10.324 5.70755 10.5257 5.78981 10.7381 5.82099L13.9669 6.29349C14.0281 6.30235 14.0855 6.32816 14.1328 6.36799C14.1801 6.40782 14.2153 6.46008 14.2344 6.51887C14.2535 6.57765 14.2558 6.64062 14.241 6.70064C14.2262 6.76065 14.1949 6.81533 14.1506 6.85849L11.8156 9.13224C11.6616 9.2823 11.5464 9.46754 11.4799 9.67201C11.4134 9.87647 11.3975 10.094 11.4338 10.306L11.985 13.5185C11.9958 13.5796 11.9892 13.6426 11.9659 13.7002C11.9427 13.7577 11.9037 13.8076 11.8535 13.8441C11.8032 13.8806 11.7437 13.9022 11.6818 13.9065C11.6199 13.9109 11.5579 13.8977 11.5031 13.8685L8.61689 12.351C8.42671 12.2511 8.21512 12.199 8.00032 12.199C7.78552 12.199 7.57394 12.2511 7.38376 12.351L4.49814 13.8685C4.44334 13.8975 4.38151 13.9105 4.31967 13.9061C4.25783 13.9018 4.19846 13.8801 4.14832 13.8436C4.09818 13.8072 4.05928 13.7574 4.03605 13.6999C4.01281 13.6424 4.00617 13.5796 4.01689 13.5185L4.56751 10.3066C4.60388 10.0946 4.58813 9.87686 4.5216 9.67227C4.45507 9.46767 4.33977 9.28234 4.18564 9.13224L1.85064 6.85911C1.80601 6.81601 1.77438 6.76124 1.75936 6.70104C1.74434 6.64083 1.74653 6.57762 1.76569 6.51861C1.78484 6.45959 1.82018 6.40714 1.86768 6.36723C1.91519 6.32732 1.97295 6.30155 2.03439 6.29286L5.26251 5.82099C5.47517 5.79005 5.67713 5.7079 5.851 5.58161C6.02487 5.45531 6.16545 5.28866 6.26064 5.09599L7.70376 2.17161Z" fill="#1D1D1B" stroke="#1D1D1B" stroke-width="2" stroke-linecap="round" stroke-linejoin="round"/>
</svg>
