<svg width="24" height="24" viewBox="0 0 24 24" fill="none" xmlns="http://www.w3.org/2000/svg">
<path fill-rule="evenodd" clip-rule="evenodd" d="M12 2.18182C6.57757 2.18182 2.18182 6.57757 2.18182 12C2.18182 17.4224 6.57757 21.8182 12 21.8182C17.4224 21.8182 21.8182 17.4224 21.8182 12C21.8182 6.57757 17.4224 2.18182 12 2.18182ZM0 12C0 5.37258 5.37258 0 12 0C18.6274 0 24 5.37258 24 12C24 18.6274 18.6274 24 12 24C5.37258 24 0 18.6274 0 12Z" fill="#1D1D1B"/>
<path fill-rule="evenodd" clip-rule="evenodd" d="M12 0C12.2985 0 12.584 0.122362 12.7899 0.338558C15.7843 3.48266 17.4545 7.65814 17.4545 12C17.4545 16.3419 15.7843 20.5173 12.7899 23.6614C12.584 23.8776 12.2985 24 12 24C11.7014 24 11.4159 23.8776 11.21 23.6614C8.2156 20.5173 6.54541 16.3419 6.54541 12C6.54541 7.65814 8.2156 3.48266 11.21 0.338558C11.4159 0.122362 11.7014 0 12 0ZM12 2.74328C9.88992 5.35414 8.72723 8.61916 8.72723 12C8.72723 15.3808 9.88992 18.6459 12 21.2567C14.11 18.6459 15.2727 15.3808 15.2727 12C15.2727 8.61916 14.11 5.35414 12 2.74328Z" fill="#1D1D1B"/>
<path fill-rule="evenodd" clip-rule="evenodd" d="M0 11.9991C0 11.3966 0.488417 10.9082 1.09091 10.9082H22.9091C23.5116 10.9082 24 11.3966 24 11.9991C24 12.6016 23.5116 13.09 22.9091 13.09H1.09091C0.488417 13.09 0 12.6016 0 11.9991Z" fill="#1D1D1B"/>
</svg>
